<svg width="220" height="232" viewBox="0 0 220 232" fill="none" xmlns="http://www.w3.org/2000/svg">
<path d="M96.6365 173.066C94.4144 171.712 92.5806 169.684 91.5743 167.072C89.1489 160.778 92.2943 153.685 98.5903 151.258L132.601 138.152C138.895 135.727 145.99 138.874 148.415 145.168C150.615 150.876 148.203 157.201 143.045 160.146C145.268 161.502 147.103 163.528 148.11 166.139C149.085 168.671 149.123 171.316 148.455 173.752L153.901 171.653C160.195 169.228 167.289 172.375 169.714 178.669C172.14 184.963 168.992 192.058 162.698 194.483L128.687 207.59C122.394 210.015 115.3 206.87 112.874 200.574C111.898 198.042 111.859 195.394 112.53 192.96L107.085 195.058C100.791 197.484 93.6973 194.338 91.2711 188.042C89.0683 182.339 91.4821 176.013 96.6364 173.066L96.6365 173.066ZM143.745 146.968C142.311 143.248 138.121 141.389 134.401 142.822L100.39 155.929C96.6723 157.362 94.8112 161.552 96.2448 165.272C97.6775 168.99 101.868 170.851 105.588 169.418L139.599 156.311C143.319 154.878 145.178 150.688 143.745 146.968ZM117.545 198.778C118.978 202.496 123.169 204.357 126.889 202.923L160.9 189.817C164.62 188.383 166.479 184.193 165.045 180.473C163.612 176.753 159.422 174.894 155.702 176.328L121.691 189.434C117.969 190.868 116.111 195.058 117.544 198.778L117.545 198.778ZM105.283 190.393L139.294 177.287C143.014 175.853 144.873 171.663 143.439 167.943C142.006 164.223 137.816 162.364 134.096 163.798L100.085 176.904C96.3649 178.338 94.506 182.528 95.9396 186.248C97.3731 189.968 101.565 191.826 105.283 190.393Z" fill="#BE3455"/>
<path d="M107.662 133.463C89.0439 140.638 68.0594 131.329 60.8853 112.712C53.7112 94.0955 63.0219 73.1148 81.6414 65.9396C100.245 58.7707 121.216 68.0826 128.39 86.6988C135.563 105.316 126.263 126.296 107.662 133.463ZM118.914 93.0058C120.273 97.9185 120.068 102.961 118.561 107.556L124.031 109.992C126.135 103.982 126.411 97.3156 124.494 90.8555L118.914 93.0058ZM72.7544 87.2447C75.1438 83.0405 78.7436 79.4975 83.2963 77.2034L81.1474 71.6303C75.0804 74.5449 70.3303 79.2241 67.2942 84.8133L72.7544 87.2447ZM87.97 75.4062C92.8752 74.0555 97.9135 74.2675 102.501 75.7796L104.917 70.3105C98.9186 68.2052 92.2676 67.922 85.8232 69.8288L87.9723 75.4056L87.97 75.4062ZM87.3886 80.8571C76.9984 84.861 71.7977 96.5609 75.7971 106.939L75.8062 106.963C79.8102 117.353 91.5218 122.549 101.912 118.545C112.288 114.547 117.472 102.84 113.459 92.4257C109.461 82.0496 97.7636 76.859 87.3886 80.8571L87.3886 80.8571ZM116.537 112.135C114.155 116.35 110.553 119.899 105.998 122.196L108.148 127.775C114.221 124.858 118.966 120.171 122.001 114.569L116.537 112.135ZM101.33 123.995C96.4035 125.354 91.3447 125.136 86.7414 123.612L84.3257 129.083C90.3405 131.202 97.012 131.489 103.48 129.574L101.33 123.995ZM79.7496 127.052L82.1688 121.573C77.9668 119.183 74.4311 115.58 72.1424 111.028L66.5633 113.178C69.4765 119.254 74.1543 124.01 79.7496 127.052ZM64.7657 108.506L70.3425 106.357C68.991 101.45 69.204 96.4079 70.7225 91.8217L65.2627 89.3879C63.1495 95.3884 62.8596 102.051 64.7657 108.506ZM109.489 72.3388L107.072 77.8078C111.271 80.1914 114.812 83.786 117.107 88.3335L122.686 86.1836C119.766 80.1175 115.083 75.3723 109.489 72.3384L109.489 72.3388Z" fill="#BE3455"/>
<path d="M116.155 45.3188L125.971 41.5361C126.701 41.2548 127.163 40.5434 127.119 39.7638L126.556 29.2602C126.389 26.1895 128.135 23.4954 131.001 22.3907C133.868 21.2861 136.971 22.1118 138.905 24.4979L145.536 32.6631C146.027 33.2704 146.847 33.4879 147.577 33.2066L157.393 29.4239C160.259 28.3193 163.362 29.145 165.296 31.5311C167.231 33.9171 167.404 37.1225 165.737 39.7012L160.018 48.5325C159.593 49.1889 159.638 50.0371 160.13 50.6414L166.761 58.8066C168.698 61.1917 168.869 64.3981 167.202 66.9767C166.369 68.2659 165.2 69.1977 163.871 69.7098C162.543 70.2218 161.05 70.3129 159.568 69.9183L149.402 67.2089C148.648 67.0066 147.854 67.3128 147.432 67.968L141.715 76.798C140.045 79.3754 137.049 80.53 134.081 79.7401C131.112 78.9479 129.09 76.455 128.925 73.3871L128.36 62.8843C128.319 62.1034 127.783 61.4446 127.028 61.2452L116.864 58.5347C113.896 57.7447 111.873 55.2496 111.708 52.1817C111.546 49.114 113.289 46.4235 116.155 45.3189L116.155 45.3188ZM118.194 53.547L128.358 56.2575C131.28 57.0343 133.352 59.5857 133.516 62.6097L134.081 73.1125C134.146 74.3212 135.117 74.6718 135.413 74.7515C135.709 74.8312 136.726 75.0087 137.383 73.9925L143.102 65.1612C143.925 63.8923 145.101 62.9634 146.438 62.4484C147.776 61.9326 149.273 61.8311 150.733 62.2205L160.9 64.9299C162.072 65.2439 162.707 64.4275 162.87 64.1709C163.036 63.913 163.521 63.0014 162.757 62.062L156.126 53.8968C154.219 51.5471 154.045 48.2653 155.686 45.7266L161.405 36.8954C162.064 35.8783 161.486 35.022 161.293 34.7865C161.098 34.5489 160.382 33.8075 159.25 34.2438L149.434 38.0265C146.611 39.1141 143.436 38.2659 141.53 35.9193L134.899 27.7541C134.135 26.8115 133.141 27.098 132.857 27.2074C132.573 27.3168 131.644 27.771 131.709 28.9797L132.272 39.4833C132.434 42.5018 130.646 45.2626 127.826 46.3493L118.01 50.132C116.878 50.5683 116.847 51.598 116.86 51.9052C116.876 52.2163 117.024 53.2374 118.194 53.5471L118.194 53.547Z" fill="#BE3455"/>
<path d="M82.3332 154.357C82.0973 156.622 80.504 158.403 78.2786 158.873L72.2142 160.17L71.5735 166.339C71.3682 168.318 70.1289 169.918 68.3323 170.611C68.0722 170.711 67.8002 170.794 67.5159 170.854C65.2882 171.331 63.1112 170.363 61.9698 168.391L58.862 163.025L52.7976 164.322C50.5698 164.799 48.3929 163.831 47.2493 161.86C46.1079 159.888 46.3532 157.52 47.8745 155.824L52.0182 151.21L48.9103 145.843C47.769 143.871 48.0143 141.502 49.5377 139.806C51.0606 138.116 53.39 137.614 55.4708 138.537L61.1396 141.053L65.2833 136.438C66.8067 134.742 69.1379 134.245 71.2197 135.168C73.302 136.092 74.4967 138.15 74.2605 140.418L73.6198 146.587L79.2886 149.102C81.3726 150.03 82.5659 152.092 82.3322 154.356L82.3332 154.357ZM71.5274 151.31C69.4782 150.398 68.2553 148.288 68.4889 146.059L69.1281 139.892L64.9863 144.506C63.4874 146.179 61.1021 146.686 59.0532 145.775L53.3844 143.26L56.4923 148.627C57.6173 150.569 57.3664 152.997 55.867 154.663L51.7234 159.277L57.7897 157.979C59.9825 157.511 62.2108 158.5 63.338 160.441L66.4437 165.809L67.0835 159.637C67.2873 157.683 68.5663 156.048 70.3574 155.358C70.6079 155.261 70.868 155.183 71.1356 155.125L77.2019 153.827L71.5274 151.31Z" fill="#BE3455"/>
<path d="M47.8113 81.5104C46.6833 83.489 44.5078 84.4775 42.2815 84.0116L36.2081 82.7572L33.1377 88.1459C32.1528 89.8751 30.3741 90.8407 28.4508 90.751C28.1723 90.738 27.8901 90.7041 27.6057 90.6447C25.3744 90.1842 23.7714 88.4219 23.5206 86.1575L22.8368 79.9937L16.7634 78.7392C14.5321 78.2787 12.9291 76.5165 12.6759 74.2519C12.4251 71.9875 13.6035 69.9178 15.6786 68.9787L21.3296 66.4232L20.6459 60.2594C20.395 57.995 21.5735 55.9253 23.6508 54.9863C25.7257 54.0519 28.0597 54.531 29.5926 56.2139L33.7689 60.7986L39.4199 58.2431C41.4973 57.3042 43.8312 57.7879 45.3653 59.4708C46.8993 61.1549 47.1638 63.5204 46.0345 65.5011L42.9642 70.8898L47.1404 75.4745C48.6742 77.1632 48.9364 79.5308 47.8106 81.5096L47.8113 81.5104ZM39.1472 74.3703C37.6386 72.7105 37.3687 70.2871 38.4803 68.3401L41.5482 62.9534L35.8992 65.509C33.8536 66.4367 31.4661 65.9402 29.9574 64.2815L25.7812 59.6967L26.465 65.8605C26.7128 68.0913 25.5054 70.2129 23.4623 71.1337L17.8113 73.6892L23.8868 74.9437C26.0825 75.3979 27.7242 77.2001 27.9742 79.4311L28.6557 85.5948L31.7262 80.2037C32.6997 78.497 34.5287 77.5153 36.4461 77.6047C36.7143 77.6172 36.9838 77.6506 37.2524 77.7046L43.3279 78.9592L39.1472 74.3703Z" fill="#BE3455"/>
</svg>
