<svg width="170" height="170" viewBox="0 0 170 170" fill="none" xmlns="http://www.w3.org/2000/svg">
<path fill-rule="evenodd" clip-rule="evenodd" d="M107.442 0.87314C110.805 1.86945 160.811 20.2288 162.504 21.0886C167.491 23.6211 170.279 28.619 169.978 34.4893C169.843 37.1147 128.737 152.197 124.664 161.349C122.245 166.788 117.464 170.009 111.828 170C108.66 169.995 108.082 169.823 93.9944 164.682L81.8748 160.259L60.7264 163.988C49.0947 166.038 38.7809 167.797 37.8068 167.897C30.8893 168.601 24.5035 163.824 22.7609 156.642C21.3932 151.005 0 27.6423 0 25.3927C0 19.1209 4.31131 13.5775 10.4676 11.9331C14.6693 10.8109 67.1803 1.78656 69.5802 1.77425C78.5423 1.72831 84.5896 9.37156 85.039 21.3123C85.0469 21.5287 86.0855 18.9066 87.3466 15.4852C92.3181 1.99561 97.7939 -1.98563 107.442 0.87314ZM99.8517 6.68489C98.3273 7.32335 96.39 9.10292 95.6736 10.523C94.9898 11.8781 74.318 68.738 74.2645 69.4104C74.225 69.909 142.165 94.8684 142.55 94.4962C143.014 94.0478 163.806 36.3175 164.045 34.8149C165.099 28.1749 165.284 28.2831 132.252 16.1946C102.951 5.47154 102.832 5.43659 99.8517 6.68489ZM40.5751 12.5712C-0.148132 19.7587 3.62482 13.9516 11.3035 57.6271C14.2326 74.2861 16.683 87.9704 16.7491 88.037C16.853 88.1412 57.6137 81.0449 62.3176 80.1035L64.0224 79.7626L72.5364 56.2903L81.0505 32.8179L79.3643 23.2926C77.2998 11.6328 76.7853 10.3322 73.5677 8.64488C70.7201 7.15158 72.4471 6.94586 40.5751 12.5712ZM108.7 13.3421C113.858 14.7845 116.418 21.017 113.799 25.7536C110.142 32.3669 100.227 31.269 98.1234 24.0179C96.2472 17.5497 102.213 11.528 108.7 13.3421ZM67.4234 14.1743C76.7498 17.2412 74.9038 30.9268 65.1639 30.9268C56.1454 30.9268 53.1908 18.8207 61.1967 14.6713C62.392 14.0515 66.1404 13.7526 67.4234 14.1743ZM105.489 19.1945C104.327 19.6376 103.5 21.0017 103.761 22.045C104.294 24.1741 106.621 24.8894 108.122 23.3855C110.093 21.4095 108.081 18.2065 105.489 19.1945ZM63.2549 20.6925C62.2296 21.7197 62.2163 22.9068 63.2174 24.0732C64.2981 25.3325 65.9082 25.3172 67.0066 24.0376C69.1441 21.5466 65.5761 18.3656 63.2549 20.6925ZM22.7506 22.0103C29.6704 24.177 31.4576 32.031 26.1054 36.7529C19.0593 42.9691 8.83984 34.6634 13.1196 26.199C14.7985 22.8782 19.2872 20.9258 22.7506 22.0103ZM18.8667 28.5434C17.1841 30.2301 18.2662 32.8576 20.6436 32.8576C22.9814 32.8576 23.9764 30.2068 22.278 28.5045C21.0401 27.2642 20.1328 27.2745 18.8667 28.5434ZM152.282 29.2917C159.73 32.8625 158.461 43.7547 150.394 45.4887C142.642 47.1547 137.144 38.0808 142.023 31.6708C144.241 28.7558 148.907 27.6739 152.282 29.2917ZM146.824 35.3991C145.957 36.5029 145.943 37.8514 146.788 38.7605C148.087 40.1583 149.911 39.9868 150.97 38.3674C152.623 35.8385 148.689 33.022 146.824 35.3991ZM50.209 37.6307C58.7562 40.832 56.9119 53.4332 47.8001 54.0863C38.5677 54.7484 35.0721 42.2318 43.2945 37.9539C44.6894 37.2279 48.6407 37.0435 50.209 37.6307ZM45.1933 44.054C43.7764 45.8588 44.8817 48.17 47.1618 48.17C48.1492 48.17 48.5995 47.9696 49.1303 47.2929C50.5471 45.488 49.4418 43.1768 47.1618 43.1768C46.1743 43.1768 45.724 43.3772 45.1933 44.054ZM94.8599 53.3686C100.504 55.3749 102.239 63.1536 97.9922 67.4105C94.6025 70.8082 89.2081 70.894 85.9244 67.6029C79.4148 61.0784 86.1891 50.2865 94.8599 53.3686ZM90.157 59.6394C87.8614 61.9399 91.0036 65.547 93.459 63.4299C94.7227 62.3404 94.7526 60.6557 93.5267 59.5988C92.3663 58.5985 91.1813 58.6124 90.157 59.6394ZM31.8192 64.3446C39.7985 68.3299 36.9662 80.5629 28.0646 80.5629C18.8614 80.5629 16.0779 68.1534 24.4089 64.2651C26.758 63.1686 29.5242 63.1985 31.8192 64.3446ZM135.839 68.4733C145.457 70.4889 144.914 84.4789 135.183 85.363C128.097 86.0071 123.447 78.9947 126.798 72.7186C128.473 69.5825 132.379 67.7483 135.839 68.4733ZM26.751 69.681C25.9562 69.9866 25.196 71.6726 25.4305 72.6094C26.1675 75.553 30.5339 75.0667 30.5505 72.0391C30.5602 70.2829 28.504 69.007 26.751 69.681ZM132.465 75.0307C131.635 75.7597 131.444 77.0144 132 78.0916C133.207 80.4304 136.852 79.5975 136.825 76.9894C136.801 74.6266 134.236 73.4745 132.465 75.0307ZM61.3392 104.606C49.0247 138.552 49.3182 137.408 51.9145 141.34C53.2848 143.416 54.0059 143.716 82.6991 154.188L109.767 164.066L112.154 163.95C114.914 163.817 116.706 162.813 118.304 160.508C119.088 159.375 140.15 102.176 140.28 100.825C140.313 100.483 73.1147 75.5197 72.0711 75.4855C71.9798 75.4825 67.1504 88.5866 61.3392 104.606ZM83.8616 85.57C92.176 89.4587 89.4044 101.847 80.2205 101.847C73.1525 101.847 69.1926 93.7176 73.5019 88.055C75.8584 84.9585 80.2843 83.8967 83.8616 85.57ZM39.9865 90.1268C28.4973 92.1487 18.7903 93.9087 18.415 94.0382C17.7455 94.2695 27.4438 152.142 28.8799 156.483C29.7836 159.215 33.4669 161.998 36.2016 162.016C38.0901 162.028 70.461 156.244 69.9884 155.979C69.7506 155.846 65.9746 154.435 61.5972 152.843C49.1455 148.316 46.7722 146.578 45.0358 140.718C43.5931 135.848 43.5502 136.011 53.3071 109.253C62.0562 85.2608 61.6441 86.4512 61.1984 86.4512C61.021 86.4512 51.4757 88.1053 39.9865 90.1268ZM78.4058 91.6558C77.1782 93.22 77.6714 95.0584 79.5068 95.7575C80.6988 96.2119 82.1272 95.4912 82.6785 94.1573C83.749 91.5669 80.1358 89.4511 78.4058 91.6558ZM37.654 96.9262C43.2942 98.9415 45.0245 106.214 40.9454 110.761C35.7453 116.558 26.2711 112.889 26.2452 105.069C26.2249 99.02 31.9926 94.9037 37.654 96.9262ZM124.881 100.391C133.913 103.358 132.945 116.189 123.606 117.298C116.09 118.19 111.367 109.423 116.048 103.271C117.708 101.089 122.375 99.567 124.881 100.391ZM32.9847 103.153C30.8846 105.131 33.2487 108.615 35.7951 107.295C36.3398 107.012 36.8782 106.539 36.9918 106.243C38.0373 103.512 35.0502 101.209 32.9847 103.153ZM121.023 106.871C118.476 109.066 121.693 112.811 124.336 110.727C125.511 109.801 125.539 108.054 124.396 106.908C123.371 105.881 122.186 105.867 121.023 106.871ZM97.684 114.677C105.571 118.807 102.705 130.807 93.8253 130.834C84.6836 130.862 81.8881 118.395 90.1696 114.53C92.5882 113.401 95.3504 113.455 97.684 114.677ZM92.2607 120.193C90.6635 121.409 90.9189 123.784 92.729 124.547C94.5935 125.332 96.2854 124.211 96.3056 122.177C96.3246 120.299 93.7679 119.045 92.2607 120.193ZM67.4214 124.718C77.0381 126.834 76.4984 140.735 66.7651 141.62C60.0532 142.23 55.0936 135.387 58.0272 129.563C59.8592 125.926 63.763 123.913 67.4214 124.718ZM63.851 131.602C61.6487 134.03 65.2828 137.225 67.6024 134.9C68.6406 133.86 68.6698 132.402 67.6705 131.49C66.246 130.191 65.1002 130.225 63.851 131.602ZM111.76 140.81C120.055 144.779 117.412 157.154 108.273 157.136C97.0762 157.114 96.756 140.72 107.941 140.129C109.688 140.037 110.416 140.167 111.76 140.81ZM106.431 146.854C104.964 148.324 105.702 150.705 107.786 151.229C109.349 151.622 111.181 149.747 110.784 148.161C110.259 146.064 107.92 145.362 106.431 146.854Z" fill="#BE3455"/>
</svg>
