<svg width="158" height="170" viewBox="0 0 158 170" fill="none" xmlns="http://www.w3.org/2000/svg">
<path fill-rule="evenodd" clip-rule="evenodd" d="M4.84605 55.7443C-3.595 65.9513 2.56146 80.1627 15.4094 80.1254C27.2509 80.0916 34.7962 67.7741 29.0917 57.7885C24.374 49.5296 10.9229 48.3953 4.84605 55.7443ZM29.0749 41.9144C28.7378 43.1743 29.9588 45.5926 37.7125 59.0224L46.743 74.6638L31.4473 83.4948C14.3376 93.3731 13.2275 94.4054 16.9002 97.0258L18.426 98.1145L34.1224 89.0522L49.8183 79.9902L61.0941 99.5205L72.3699 119.051L57.0244 127.911C41.0492 137.134 39.9274 138.031 41.3283 140.457C42.7593 142.936 44.3955 142.304 60.2523 133.149L75.4451 124.377L84.3049 139.723C93.563 155.758 94.4193 156.823 96.9014 155.39C99.3835 153.957 98.8894 152.683 89.6313 136.647L80.7716 121.302L100.302 110.026L119.832 98.7504L128.894 114.446L137.956 130.143L139.822 129.963C144.313 129.53 143.868 128.081 133.99 110.971L125.159 95.6751L140.75 86.6733C157.101 77.2334 158.19 76.3481 156.675 73.7251C155.337 71.4069 153.882 71.9896 137.725 81.3181L122.083 90.3487L110.808 70.8184L99.5317 51.2881L115.228 42.2261L130.924 33.1638L130.744 31.2981C130.311 26.8072 128.862 27.2524 111.752 37.1307L96.4565 45.9617L87.4546 30.37C77.3874 12.933 76.3808 11.8428 73.7527 15.527L72.664 17.0528L81.8972 33.0451L91.1301 49.0369L71.5998 60.3127L52.0695 71.5885L43.0389 55.9471C33.598 39.595 32.7602 38.547 30.2715 39.9838C29.83 40.2387 29.2916 41.1075 29.0749 41.9144ZM49.2382 30.1113C38.0795 43.6068 52.3846 61.1483 67.4537 52.4481C75.6996 47.6873 77.8512 37.5946 72.1487 30.432C66.8544 23.7836 54.6117 23.6119 49.2382 30.1113ZM89.1447 10.6964C88.5939 13.2563 90.3784 14.707 95.5591 15.9116L100.014 16.9472L98.7713 21.4493C97.2935 26.8019 97.5019 28.3616 99.7926 29.0994C102.375 29.9309 103.218 29.0007 104.669 23.7179L106.003 18.8607L111.014 20.0543C116.436 21.3464 119.051 20.6794 118.966 18.0251C118.888 15.6064 118.403 15.255 112.938 13.6514L107.737 12.1253L109.007 7.52581C110.274 2.93621 109.893 0.735401 107.73 0.155836C105.567 -0.423724 104.136 1.29157 102.939 5.89993L101.738 10.518L96.4714 9.23928C90.7189 7.84247 89.7159 8.04197 89.1447 10.6964ZM18.2731 57.3675C24.3416 58.7129 26.6949 65.0701 22.9459 69.9878C17.8331 76.6942 7.70913 74.002 7.33041 65.8356C7.08953 60.6443 12.872 56.1694 18.2731 57.3675ZM61.4584 31.6738C69.8837 32.2535 71.7392 42.4774 64.2076 46.8258C60.3525 49.0515 57.1679 48.9016 54.2922 46.3591C48.3017 41.0635 53.1625 31.1023 61.4584 31.6738ZM105.481 73.8936L116.757 93.4239L97.2266 104.7L77.6963 115.976L66.4205 96.4453L55.1447 76.915L74.675 65.6392L94.2053 54.3633L105.481 73.8936ZM118.121 50.4344C110.595 60.5975 116.521 73.8206 128.759 74.1742C146.013 74.6722 151.261 50.8466 135.054 45.5931C128.766 43.5545 121.726 45.5677 118.121 50.4344ZM71.2059 80.7183C70.5511 83.1638 71.7525 84.1525 77.0689 85.5415L82.1544 86.8697L80.8756 92.1351C79.4517 98.0019 79.5373 98.4591 82.1988 99.1722C84.8658 99.8869 85.1849 99.5156 86.8403 93.7653L88.327 88.6016L93.5863 89.9739C99.4883 91.5133 101.942 90.5485 100.953 87.0787C100.533 85.6028 99.6509 85.1129 95.2157 83.8929L89.9748 82.4516L91.2692 77.2364C92.7108 71.4288 92.6201 70.9478 89.953 70.2332C87.2915 69.52 86.9888 69.8731 85.2885 75.6659L83.7633 80.8653L78.695 79.4727C73.3964 78.0174 71.8616 78.2731 71.2059 80.7183ZM131.026 51.168C134.436 51.4547 137.684 53.9859 138.271 56.8142C140.453 67.3162 124.857 72.3948 121.409 62.305C119.538 56.8264 124.871 50.6511 131.026 51.168ZM99.2236 121.953C92.8161 132.138 99.9402 144.374 112.174 144.193C119.57 144.083 125.798 138.239 126.792 130.477C128.319 118.552 115.511 110.715 104.698 116.957C102.008 118.51 100.557 119.835 99.2236 121.953ZM52.6622 152.161C52.8319 153.927 53.2326 154.166 58.3703 155.572L63.8961 157.083L62.6131 161.993C61.3391 166.869 61.6833 169.016 63.8303 169.591C65.9774 170.167 67.3491 168.479 68.6838 163.619L70.0275 158.726L75.4002 160.136C81.1683 161.649 81.9195 161.56 82.5274 159.293C83.2127 156.733 81.6611 155.342 76.5611 153.941L71.6696 152.597L72.9839 147.567C74.4649 141.9 73.4545 139.456 70.0346 140.43C68.5662 140.849 68.076 141.715 66.9151 145.941L65.5383 150.955L60.6306 149.672C54.9195 148.18 52.3556 148.981 52.6622 152.161ZM113.658 121.045C121.348 121.931 122.97 132.454 116.033 136.45C110.008 139.922 102.717 135.888 103.09 129.29C103.344 124.811 108.877 120.494 113.658 121.045Z" fill="#BE3455"/>
</svg>
